<svg width="875" height="279" viewBox="0 0 875 279" xmlns="http://www.w3.org/2000/svg" xmlns:xlink="http://www.w3.org/1999/xlink">
    <defs>
        <path id="a" d="M.336.01h28.548v37.808H.336z"/>
        <path id="c" d="M0 .324h106.505v81.663H0z"/>
    </defs>
    <g fill="none" fill-rule="evenodd">
        <path d="m233.76 53.339 39.82 60.253V52.781c0-3.951.848-6.915 2.546-8.891 1.696-1.976 3.986-2.964 6.869-2.964 2.975 0 5.323.988 7.043 2.964 1.72 1.976 2.58 4.94 2.58 8.891v80.408c0 8.973-3.72 13.459-11.157 13.459-1.86 0-3.534-.268-5.021-.802-1.49-.535-2.884-1.383-4.185-2.545-1.302-1.162-2.51-2.522-3.626-4.08a282.447 282.447 0 0 1-3.348-4.778l-38.843-59.555v59.904c0 3.905-.907 6.859-2.72 8.858-1.813 1.998-4.14 2.998-6.974 2.998-2.93 0-5.277-1.011-7.044-3.034-1.767-2.022-2.65-4.962-2.65-8.822V55.919c0-3.348.372-5.974 1.116-7.88.883-2.093 2.347-3.801 4.394-5.126 2.045-1.325 4.254-1.987 6.625-1.987 1.859 0 3.452.303 4.777.906a11.55 11.55 0 0 1 3.487 2.441c.999 1.023 2.022 2.348 3.068 3.975a776.246 776.246 0 0 1 3.243 5.091M389.693 93.508c0-7.485-1.21-13.971-3.626-19.457-2.418-5.485-5.87-9.635-10.356-12.448-4.488-2.813-9.636-4.219-15.447-4.219-4.139 0-7.962.778-11.472 2.336-3.51 1.559-6.533 3.824-9.066 6.8-2.535 2.975-4.533 6.776-5.998 11.401-1.464 4.627-2.196 9.822-2.196 15.587 0 5.812.732 11.065 2.196 15.761 1.465 4.696 3.533 8.59 6.207 11.68 2.673 3.093 5.742 5.406 9.206 6.94 3.462 1.534 7.263 2.301 11.402 2.301 5.3 0 10.17-1.326 14.61-3.975 4.44-2.65 7.973-6.741 10.6-12.274 2.626-5.533 3.94-12.343 3.94-20.433m-29.429-52.582c10.6 0 19.701 2.15 27.302 6.45 7.601 4.301 13.355 10.415 17.26 18.341 3.905 7.928 5.858 17.237 5.858 27.931 0 7.904-1.07 15.087-3.208 21.548-2.139 6.463-5.347 12.065-9.624 16.807-4.278 4.742-9.53 8.368-15.76 10.879-6.23 2.511-13.367 3.766-21.41 3.766-7.997 0-15.157-1.29-21.479-3.87-6.323-2.581-11.6-6.218-15.83-10.915-4.232-4.695-7.428-10.343-9.589-16.946-2.162-6.6-3.243-13.738-3.243-21.409 0-7.856 1.126-15.063 3.382-21.619 2.254-6.555 5.52-12.134 9.798-16.737 4.277-4.603 9.484-8.124 15.621-10.565 6.137-2.441 13.111-3.661 20.922-3.661M448.691 53.479v74.41h41.982c3.348 0 5.916.814 7.706 2.44 1.79 1.629 2.685 3.673 2.685 6.137 0 2.51-.884 4.545-2.65 6.103-1.767 1.557-4.348 2.336-7.74 2.336H440.67c-4.51 0-7.753-1-9.728-3-1.977-1.997-2.964-5.23-2.964-9.693V53.479c0-4.185.941-7.323 2.824-9.415 1.883-2.092 4.36-3.138 7.427-3.138 3.115 0 5.637 1.035 7.567 3.103 1.93 2.069 2.894 5.22 2.894 9.45M525.96 146.648c-2.882 0-5.37-.931-7.461-2.79-2.092-1.858-3.138-4.463-3.138-7.81 0-2.836.999-5.276 2.999-7.322 1.998-2.046 4.463-3.07 7.392-3.07 2.929 0 5.427 1.013 7.497 3.035 2.068 2.022 3.103 4.475 3.103 7.357 0 3.302-1.035 5.893-3.103 7.776-2.07 1.883-4.5 2.824-7.288 2.824M579.659 53.479v74.41h41.982c3.348 0 5.916.814 7.706 2.44 1.789 1.629 2.685 3.673 2.685 6.137 0 2.51-.884 4.545-2.65 6.103-1.767 1.557-4.348 2.336-7.741 2.336h-50.002c-4.51 0-7.753-1-9.728-3-1.977-1.997-2.964-5.23-2.964-9.693V53.479c0-4.185.94-7.323 2.824-9.415 1.883-2.092 4.359-3.138 7.427-3.138 3.115 0 5.637 1.035 7.567 3.103 1.929 2.069 2.894 5.22 2.894 9.45M646.467 134.025V53.478c0-4.184.952-7.322 2.86-9.415 1.905-2.092 4.37-3.138 7.391-3.138 3.115 0 5.638 1.037 7.567 3.104 1.93 2.068 2.894 5.22 2.894 9.45v80.546c0 4.23-.964 7.392-2.894 9.484-1.93 2.093-4.452 3.139-7.567 3.139-2.974 0-5.428-1.059-7.356-3.173-1.93-2.115-2.894-5.264-2.894-9.45M705.466 54.525l23.153 68.552 23.223-69.04c1.208-3.626 2.115-6.148 2.719-7.567.604-1.418 1.604-2.696 2.999-3.836 1.395-1.138 3.3-1.708 5.719-1.708 1.766 0 3.405.443 4.916 1.325 1.51.883 2.696 2.057 3.557 3.522.859 1.464 1.29 2.94 1.29 4.428 0 1.023-.14 2.127-.42 3.312A29.974 29.974 0 0 1 771.578 57a209.535 209.535 0 0 0-1.255 3.52l-24.757 66.81a232.443 232.443 0 0 1-2.65 7.288c-.884 2.3-1.907 4.323-3.068 6.067-1.163 1.743-2.71 3.173-4.638 4.288-1.93 1.116-4.29 1.674-7.078 1.674-2.79 0-5.15-.547-7.08-1.64-1.928-1.09-3.486-2.532-4.671-4.322-1.186-1.79-2.221-3.824-3.103-6.102a203.484 203.484 0 0 1-2.65-7.253l-24.34-66.251a129.102 129.102 0 0 0-1.29-3.557 27.38 27.38 0 0 1-1.115-3.766c-.303-1.347-.453-2.486-.453-3.417 0-2.371.952-4.533 2.859-6.485 1.906-1.953 4.3-2.93 7.183-2.93 3.533 0 6.032 1.08 7.497 3.244 1.464 2.162 2.964 5.614 4.498 10.356M855.96 58.639h-46.655v25.105h42.959c3.16 0 5.52.71 7.078 2.127 1.557 1.419 2.337 3.29 2.337 5.615s-.768 4.218-2.302 5.683c-1.534 1.465-3.905 2.197-7.113 2.197h-42.96v29.08h48.26c3.254 0 5.707.756 7.357 2.267 1.65 1.51 2.476 3.522 2.476 6.032 0 2.418-.826 4.383-2.476 5.893-1.65 1.512-4.103 2.267-7.357 2.267h-56.278c-4.51 0-7.753-1-9.73-3-1.975-1.997-2.963-5.23-2.963-9.693v-76.85c0-2.975.442-5.406 1.325-7.288.883-1.883 2.267-3.254 4.15-4.115 1.883-.86 4.289-1.29 7.218-1.29h54.674c3.3 0 5.753.733 7.357 2.197s2.406 3.382 2.406 5.753c0 2.418-.802 4.359-2.406 5.824-1.604 1.464-4.056 2.196-7.357 2.196" fill="#FF494E"/>
        <path d="M240.273 212.14c0-3.09-.31-5.976-.928-8.654-.62-2.68-1.716-5.011-3.29-6.995-1.572-1.985-3.687-3.556-6.343-4.715-2.657-1.16-5.996-1.74-10.018-1.74-1.238 0-2.54.027-3.908.077a56.92 56.92 0 0 0-4.138.308v44.212h8.82c3.97 0 7.232-.67 9.785-2.01 2.554-1.34 4.578-3.078 6.074-5.216 1.495-2.14 2.527-4.548 3.095-7.228.566-2.68.85-5.358.85-8.038m4.708-.077c0 4.687-.695 8.898-2.084 12.634-1.388 3.734-3.755 6.839-7.098 9.31-3.858 2.887-9.08 4.328-15.663 4.328h-13.04v-51.54c2.469-.258 4.694-.437 6.675-.541 1.979-.102 3.869-.154 5.67-.154 5.144 0 9.375.695 12.693 2.087 3.318 1.39 5.928 3.27 7.83 5.64 1.904 2.37 3.215 5.126 3.936 8.268.72 3.143 1.08 6.465 1.08 9.968M259.793 206.47c.31-.463.72-.977 1.234-1.543a10.352 10.352 0 0 1 1.853-1.582c.72-.488 1.53-.887 2.43-1.195.9-.31 1.89-.463 2.97-.463.464 0 1.004.038 1.622.115a8.218 8.218 0 0 1 1.697.386c.514.18.95.45 1.312.81.358.36.54.824.54 1.389 0 .566-.168 1.157-.502 1.774-.336.618-.656 1.108-.964 1.466a6.13 6.13 0 0 0-1.93-1.311c-.72-.31-1.671-.463-2.855-.463-.925 0-1.84.168-2.738.502a8.39 8.39 0 0 0-2.392 1.349 6.939 6.939 0 0 0-1.66 1.93c-.412.72-.617 1.466-.617 2.237v26.465h-4.398v-36.032h.31c1.028 0 1.966.309 2.816.926.849.617 1.272 1.697 1.272 3.24M286.026 238.722c-1.233 0-2.199-.231-2.892-.694a4.259 4.259 0 0 1-1.545-1.775c-.334-.72-.54-1.555-.616-2.508a36.829 36.829 0 0 1-.115-2.97v-28.471h.23c1.028 0 1.98.27 2.855.81s1.312 1.608 1.312 3.202v24.69c0 1.132.077 2.058.231 2.778.154.72.387 1.287.695 1.698.309.412.707.707 1.196.886.488.18 1.092.297 1.813.348v1.62a9.923 9.923 0 0 1-1.62.309c-.515.05-1.03.077-1.543.077m.154-45.908c0 .977-.322 1.812-.964 2.508-.644.694-1.428 1.04-2.353 1.04-.926 0-1.712-.346-2.354-1.04-.644-.696-.964-1.531-.964-2.508 0-.977.32-1.814.964-2.508.642-.694 1.428-1.042 2.353-1.042.925 0 1.71.348 2.353 1.042.642.694.964 1.53.964 2.508M302.384 206.547c1.186-1.234 2.89-2.353 5.108-3.356 2.218-1.003 4.875-1.504 7.97-1.504 1.858 0 3.458.218 4.8.655 1.34.437 2.476 1.03 3.405 1.775.929.746 1.664 1.595 2.207 2.546.54.952.915 1.917 1.12 2.894.259 1.08.426 2.198.503 3.356.078 1.157.117 2.327.117 3.51v21.913h-4.398v-21.965c0-1.03-.051-2.061-.155-3.093-.104-1.031-.286-1.932-.544-2.707-.985-3.299-3.913-4.95-8.784-4.95a15.08 15.08 0 0 0-3.227.349 17.414 17.414 0 0 0-2.992.929c-.933.386-1.788.837-2.566 1.353-.777.516-1.4 1.03-1.865 1.546-.414.465-.622 1.108-.622 1.934v26.604h-4.398v-36.032h.309c1.06 0 1.993.283 2.8.848.808.567 1.212 1.698 1.212 3.395M346.98 219.356v-2.16l12.808-12.654c.72-.72 1.401-1.274 2.046-1.66a3.913 3.913 0 0 1 2.043-.578c.412 0 .798.065 1.159.193.358.129.668.245.925.347.308.206.59.386.849.54l-15.2 14.738 17.591 20.446a6.375 6.375 0 0 1-2.392.463c-1.903 0-3.575-.874-5.014-2.623l-14.815-17.052zm-7.02 18.98v-54.704h.228c.1 0 .188-.012.264-.04a.853.853 0 0 1 .265-.037c.304 0 .656.038 1.062.115.404.078.796.258 1.175.54.378.284.707.683.986 1.197.277.514.418 1.209.418 2.083v50.846h-4.399zM385.25 205.39c-.876 0-1.764.104-2.663.309a8.541 8.541 0 0 0-2.508 1.003 5.789 5.789 0 0 0-1.89 1.813c-.489.746-.733 1.686-.733 2.816 0 1.08.242 1.968.73 2.663.487.694 1.14 1.286 1.96 1.774.82.489 1.754.914 2.805 1.273a52.93 52.93 0 0 0 3.267 1.003c1.331.412 2.651.849 3.958 1.312a12.987 12.987 0 0 1 3.535 1.89 9.48 9.48 0 0 1 2.575 3.009c.666 1.209 1 2.739 1 4.59 0 1.698-.336 3.216-1.004 4.553a9.845 9.845 0 0 1-2.7 3.356c-1.132.9-2.457 1.582-3.974 2.045-1.517.463-3.15.695-4.899.695-2.778 0-5.13-.31-7.06-.926-1.929-.617-3.254-1.183-3.974-1.698-.77-.565-1.157-1.157-1.157-1.774 0-.36.115-.745.346-1.158.23-.41.627-1.003 1.191-1.775.308.258.781.592 1.423 1.003.64.413 1.408.825 2.305 1.236.897.412 1.908.77 3.037 1.08 1.127.308 2.357.463 3.69.463 1.074 0 2.125-.128 3.15-.386 1.025-.257 1.922-.656 2.691-1.196a5.923 5.923 0 0 0 1.845-2.122c.46-.874.692-1.93.692-3.164 0-1.285-.257-2.353-.77-3.202a6.203 6.203 0 0 0-2.074-2.083c-.872-.54-1.87-.99-2.999-1.35a67.333 67.333 0 0 0-3.457-1.003 64.287 64.287 0 0 1-3.805-1.196 12.4 12.4 0 0 1-3.382-1.775 8.55 8.55 0 0 1-2.42-2.816c-.615-1.131-.923-2.572-.923-4.321 0-1.593.353-2.982 1.06-4.167a10.187 10.187 0 0 1 2.74-3.008c1.118-.823 2.398-1.44 3.84-1.852a16.222 16.222 0 0 1 4.474-.617c2.52 0 4.616.335 6.288 1.003 1.671.669 2.944 1.388 3.82 2.16.565.412.951.798 1.157 1.157.205.36.308.72.308 1.08 0 .413-.129.863-.385 1.35a29.775 29.775 0 0 0-.772 1.583h-.694a11.855 11.855 0 0 0-3.858-3.357c-1.543-.848-3.472-1.273-5.787-1.273M454.228 238.645h-4.861l-7.947-20.601-8.642 20.6h-4.552l-12.422-35.954a47.5 47.5 0 0 0 1.04-.271c.283-.077.605-.115.966-.115 1.08 0 1.929.412 2.546 1.235.617.823 1.13 1.826 1.543 3.008l8.95 27.778 8.565-21.22-4.012-10.492a5.165 5.165 0 0 1 1.774-.31c1.183 0 2.096.362 2.739 1.08.643.722 1.17 1.673 1.582 2.856l10.339 27.854 8.796-27.777c.41-1.234.913-2.211 1.505-2.932.59-.72 1.4-1.08 2.43-1.08.41 0 .758.027 1.042.077.282.052.552.129.81.232l-12.191 36.032zM478.995 238.722c-1.234 0-2.2-.231-2.893-.694a4.259 4.259 0 0 1-1.544-1.775c-.335-.72-.54-1.555-.617-2.508a36.829 36.829 0 0 1-.115-2.97v-28.471h.23c1.029 0 1.98.27 2.856.81.874.54 1.31 1.608 1.31 3.202v24.69c0 1.132.079 2.058.233 2.778.154.72.386 1.287.694 1.698.309.412.707.707 1.196.886.489.18 1.093.297 1.813.348v1.62a9.923 9.923 0 0 1-1.62.309c-.515.05-1.03.077-1.543.077m.154-45.908c0 .977-.322 1.812-.964 2.508-.644.694-1.428 1.04-2.353 1.04-.926 0-1.711-.346-2.354-1.04-.644-.696-.964-1.531-.964-2.508 0-.977.32-1.814.964-2.508.643-.694 1.428-1.042 2.354-1.042.925 0 1.709.348 2.353 1.042.642.694.964 1.53.964 2.508M507.08 202.304v3.549h-12.036v22.607c0 2.366.449 4.18 1.35 5.44.899 1.26 2.327 1.89 4.282 1.89 1.028 0 1.967-.18 2.816-.54.849-.36 1.555-.745 2.122-1.157a11.194 11.194 0 0 0 1.775-1.698c.719.72 1.196 1.273 1.427 1.659.232.386.347.708.347.965 0 .308-.206.707-.617 1.195-.412.489-1.003.978-1.775 1.466-.771.49-1.697.913-2.777 1.273-1.081.36-2.315.54-3.704.54-2.521 0-4.488-.49-5.902-1.465-1.416-.977-2.405-2.288-2.971-3.935a13.568 13.568 0 0 1-.617-3.01 35.446 35.446 0 0 1-.154-3.394V191.27h.23a.54.54 0 0 0 .233-.04.524.524 0 0 1 .23-.037c.31 0 .669.038 1.08.115.412.077.81.258 1.197.54.386.283.72.683 1.003 1.196.282.515.425 1.209.425 2.083v7.176h12.036zM520.89 206.624c1.183-1.234 2.855-2.365 5.015-3.395 2.161-1.028 4.809-1.542 7.947-1.542 1.852 0 3.446.218 4.784.655 1.337.437 2.469 1.03 3.395 1.775.926.746 1.659 1.595 2.199 2.546.54.952.913 1.917 1.119 2.894.257 1.08.424 2.198.501 3.356.077 1.157.116 2.327.116 3.51v21.913h-4.398v-21.965c0-1.03-.052-2.06-.155-3.093-.104-1.03-.284-1.932-.542-2.707-.981-3.3-3.795-4.95-8.441-4.95-1.395 0-2.79.181-4.184.542-1.393.361-2.633.813-3.716 1.354-1.085.541-1.963 1.146-2.633 1.816-.672.671-1.007 1.315-1.007 1.934v27.07h-4.398v-54.705h.154c.051 0 .128-.013.232-.039.102-.026.205-.038.308-.038.309 0 .668.038 1.081.115.411.077.81.258 1.196.54.385.283.719.683 1.003 1.196.282.515.424 1.21.424 2.083v19.135zM573.742 183.632h.228c.1 0 .188-.013.264-.039a.853.853 0 0 1 .266-.038c.303 0 .656.038 1.06.115.406.077.798.258 1.177.54.378.283.707.683.986 1.196.277.515.417 1.209.417 2.083v43.748c0 1.081.077 1.968.23 2.663.156.694.387 1.234.696 1.62.309.385.706.669 1.196.848.488.181 1.092.297 1.813.348v1.62c-.567.154-1.107.257-1.62.309-.515.05-1.03.077-1.543.077-1.223 0-2.19-.232-2.896-.694-.708-.463-1.226-1.054-1.554-1.775-.328-.72-.531-1.556-.607-2.508a37.317 37.317 0 0 1-.113-2.97v-47.143zM596.272 238.722c-1.234 0-2.2-.231-2.893-.694a4.259 4.259 0 0 1-1.544-1.775c-.335-.72-.54-1.555-.617-2.508a36.829 36.829 0 0 1-.115-2.97v-28.471h.23c1.029 0 1.98.27 2.856.81.874.54 1.31 1.608 1.31 3.202v24.69c0 1.132.079 2.058.233 2.778.154.72.386 1.287.694 1.698.309.412.707.707 1.196.886.489.18 1.093.297 1.813.348v1.62a9.923 9.923 0 0 1-1.62.309c-.515.05-1.03.077-1.543.077m.154-45.908c0 .977-.322 1.812-.964 2.508-.644.694-1.428 1.04-2.353 1.04-.926 0-1.711-.346-2.354-1.04-.644-.696-.964-1.531-.964-2.508 0-.977.32-1.814.964-2.508.643-.694 1.428-1.042 2.354-1.042.925 0 1.709.348 2.353 1.042.642.694.964 1.53.964 2.508M621.348 238.645h-4.63l-13.425-35.955a5.751 5.751 0 0 1 2.083-.386c1.235 0 2.148.36 2.74 1.08.59.72 1.092 1.698 1.504 2.932l9.49 27.932 10.108-28.241c.463-1.234 1.003-2.16 1.62-2.777.618-.617 1.44-.926 2.469-.926.41 0 .772.052 1.08.154.309.104.59.207.849.309l-13.888 35.878zM665.326 217.89c0-1.698-.154-3.305-.463-4.822-.309-1.517-.849-2.842-1.62-3.974-.772-1.131-1.813-2.032-3.125-2.701-1.312-.668-2.945-1.003-4.9-1.003-3.19 0-5.786 1.08-7.792 3.24-2.007 2.16-3.06 5.247-3.164 9.26h21.064zm3.472 16.048c0 .464-.297 1.004-.887 1.62-.592.618-1.428 1.223-2.508 1.813-1.08.593-2.38 1.093-3.896 1.505-1.518.41-3.202.618-5.054.618-2.469 0-4.745-.361-6.828-1.081a13.55 13.55 0 0 1-5.4-3.433c-1.519-1.57-2.69-3.574-3.512-6.02-.824-2.441-1.235-5.361-1.235-8.756 0-3.24.45-6.03 1.351-8.372.9-2.34 2.108-4.255 3.626-5.748 1.517-1.491 3.241-2.596 5.17-3.317a16.955 16.955 0 0 1 5.98-1.08c2.52 0 4.68.437 6.48 1.31 1.8.876 3.266 2.034 4.398 3.473 1.131 1.44 1.955 3.1 2.47 4.977a21.97 21.97 0 0 1 .771 5.826c0 1.234-.077 2.546-.23 3.934h-25.309c.051 2.16.321 4.142.81 5.942.488 1.8 1.247 3.344 2.276 4.629a10.242 10.242 0 0 0 3.858 2.97c1.543.695 3.368 1.042 5.478 1.042 1.594 0 2.983-.167 4.167-.502 1.182-.334 2.2-.745 3.047-1.234.85-.488 1.544-.99 2.084-1.505.54-.513.938-.951 1.196-1.311.513.566.926 1.093 1.234 1.582.31.489.463.862.463 1.118zM699.506 206.547c1.184-1.234 2.743-2.353 4.674-3.356 1.931-1.003 4.416-1.504 7.455-1.504 2.782 0 4.983.475 6.606 1.426 1.622.954 2.82 2.149 3.592 3.588 1.284-1.337 2.915-2.507 4.894-3.51 1.977-1.003 4.482-1.504 7.514-1.504 1.85 0 3.43.218 4.74.655 1.31.437 2.413 1.03 3.312 1.775.9.746 1.606 1.595 2.12 2.546.513.952.874 1.917 1.08 2.894.255 1.08.423 2.198.5 3.356.077 1.157.116 2.327.116 3.51v21.913h-4.398v-21.965c0-1.03-.052-2.061-.156-3.093-.103-1.031-.283-1.932-.54-2.707-.518-1.701-1.435-2.951-2.752-3.75-1.318-.799-3.216-1.2-5.695-1.2-2.118 0-4.042.491-5.774 1.47-1.73.98-3.034 1.934-3.909 2.861.256 1.032.424 2.075.501 3.133.077 1.058.116 2.153.116 3.286v21.965h-4.398v-21.965c0-1.03-.052-2.061-.156-3.093-.103-1.031-.283-1.932-.54-2.707-.518-1.701-1.448-2.951-2.79-3.75-1.344-.799-3.228-1.2-5.655-1.2-2.17 0-4.106.426-5.809 1.278-1.705.85-3.022 1.816-3.95 2.899-.415.465-.62 1.108-.62 1.934v26.604h-4.399v-36.032h.304c1.061 0 1.995.283 2.804.848.808.567 1.213 1.698 1.213 3.395M788.082 238.336h-4.475v-4.166c-1.184 1.234-2.868 2.353-5.054 3.355-2.187 1.004-4.822 1.505-7.908 1.505-1.852 0-3.447-.219-4.784-.655-1.338-.436-2.469-1.029-3.395-1.775-.926-.745-1.659-1.58-2.199-2.507a9.458 9.458 0 0 1-1.119-2.933 20.192 20.192 0 0 1-.5-3.356 52.161 52.161 0 0 1-.117-3.51v-21.99h.31c1.08 0 2.03.284 2.853.85.823.568 1.235 1.676 1.235 3.326v17.865c0 1.032.064 2.063.193 3.094.127 1.032.32 1.933.578 2.707.977 3.3 3.883 4.95 8.72 4.95 1.284 0 2.596-.18 3.934-.542 1.337-.36 2.546-.812 3.627-1.353 1.08-.54 1.967-1.147 2.662-1.817.694-.67 1.041-1.315 1.041-1.935v-27.145h.31c1.08 0 2.03.283 2.854.848.822.567 1.234 1.698 1.234 3.395v31.79zM809.3 205.39c-.874 0-1.762.104-2.661.309a8.541 8.541 0 0 0-2.508 1.003 5.789 5.789 0 0 0-1.89 1.813c-.49.746-.733 1.686-.733 2.816 0 1.08.242 1.968.73 2.663.487.694 1.14 1.286 1.96 1.774.82.489 1.754.914 2.805 1.273a52.93 52.93 0 0 0 3.267 1.003c1.33.412 2.65.849 3.958 1.312a12.987 12.987 0 0 1 3.535 1.89 9.48 9.48 0 0 1 2.575 3.009c.666 1.209.999 2.739.999 4.59 0 1.698-.335 3.216-1.003 4.553a9.845 9.845 0 0 1-2.7 3.356c-1.132.9-2.457 1.582-3.974 2.045-1.517.463-3.151.695-4.9.695-2.777 0-5.13-.31-7.06-.926-1.928-.617-3.253-1.183-3.973-1.698-.771-.565-1.157-1.157-1.157-1.774 0-.36.115-.745.346-1.158.23-.41.627-1.003 1.19-1.775.309.258.782.592 1.424 1.003.64.413 1.408.825 2.305 1.236.897.412 1.908.77 3.037 1.08 1.127.308 2.357.463 3.689.463 1.075 0 2.126-.128 3.15-.386 1.026-.257 1.923-.656 2.692-1.196a5.923 5.923 0 0 0 1.845-2.122c.46-.874.692-1.93.692-3.164 0-1.285-.257-2.353-.77-3.202a6.203 6.203 0 0 0-2.074-2.083c-.872-.54-1.871-.99-3-1.35a67.333 67.333 0 0 0-3.456-1.003 64.287 64.287 0 0 1-3.805-1.196 12.415 12.415 0 0 1-3.382-1.775 8.55 8.55 0 0 1-2.421-2.816c-.614-1.131-.922-2.572-.922-4.321 0-1.593.353-2.982 1.06-4.167a10.187 10.187 0 0 1 2.739-3.008c1.119-.823 2.399-1.44 3.84-1.852a16.222 16.222 0 0 1 4.475-.617c2.52 0 4.616.335 6.288 1.003 1.67.669 2.944 1.388 3.819 2.16.566.412.952.798 1.158 1.157.205.36.308.72.308 1.08 0 .413-.13.863-.385 1.35a29.775 29.775 0 0 0-.772 1.583h-.694a11.855 11.855 0 0 0-3.858-3.357c-1.543-.848-3.472-1.273-5.787-1.273M836.228 238.722c-1.235 0-2.199-.231-2.893-.694a4.259 4.259 0 0 1-1.544-1.775c-.335-.72-.54-1.555-.617-2.508a36.818 36.818 0 0 1-.116-2.97v-28.471h.232c1.028 0 1.98.27 2.855.81.874.54 1.311 1.608 1.311 3.202v24.69c0 1.132.078 2.058.232 2.778.154.72.386 1.287.694 1.698.31.412.707.707 1.196.886.49.18 1.093.297 1.813.348v1.62a9.923 9.923 0 0 1-1.62.309c-.515.05-1.029.077-1.543.077m.154-45.908c0 .977-.322 1.812-.964 2.508-.644.694-1.428 1.04-2.353 1.04-.926 0-1.71-.346-2.354-1.04-.644-.696-.964-1.531-.964-2.508 0-.977.32-1.814.964-2.508.643-.694 1.428-1.042 2.354-1.042.925 0 1.71.348 2.353 1.042.642.694.964 1.53.964 2.508" fill="#F7F7F7"/>
        <g transform="translate(846 201.676)">
            <mask id="b" fill="#fff">
                <use xlink:href="#a"/>
            </mask>
            <path d="M27.032 29.639c.31.258.681.63 1.12 1.119.435.489.655.964.655 1.427 0 .567-.463 1.262-1.389 2.084-.876.77-2.199 1.556-3.974 2.352-1.774.798-3.948 1.197-6.52 1.197-1.543 0-3.267-.22-5.169-.656-1.904-.438-3.704-1.337-5.4-2.701-1.699-1.362-3.126-3.28-4.283-5.748-1.158-2.47-1.736-5.76-1.736-9.876 0-2.571.282-4.822.848-6.751.566-1.93 1.312-3.6 2.238-5.015.926-1.414 1.993-2.572 3.202-3.472 1.208-.9 2.43-1.621 3.665-2.161C11.523.898 12.731.526 13.915.32 15.098.115 16.153.01 17.08.01c2.623 0 4.783.354 6.481 1.06 1.697.705 3.01 1.435 3.935 2.19.565.458.938.866 1.12 1.226.178.36.27.72.27 1.08 0 .413-.13.862-.387 1.35-.258.49-.54.992-.849 1.505h-.694a11.392 11.392 0 0 0-3.897-3.433c-1.569-.85-3.51-1.274-5.825-1.274-2.16 0-4.012.4-5.555 1.2-1.543.799-2.804 1.87-3.78 3.21-.979 1.34-1.699 2.94-2.16 4.796-.464 1.857-.696 3.816-.696 5.878 0 2.115.232 4.1.695 5.956.462 1.857 1.196 3.482 2.2 4.874a10.7 10.7 0 0 0 3.818 3.288c1.543.799 3.42 1.199 5.632 1.199 1.646 0 3.06-.232 4.244-.695 1.183-.463 2.186-.976 3.01-1.544a9.89 9.89 0 0 0 2.391-2.237" fill="#F7F7F7" mask="url(#b)"/>
        </g>
        <g transform="translate(0 -.324)">
            <mask id="d" fill="#fff">
                <use xlink:href="#c"/>
            </mask>
            <path d="M2.3 67.894C-2.517 52.239.476 35.964 9.023 23.289l5.789 18.816c1.135 3.693 5.087 5.783 8.775 4.648 3.692-1.14 5.782-5.087 4.647-8.78l-8.175-26.566a51.541 51.541 0 0 1 10.305-6.303l9.054 29.425c1.139 3.691 5.087 5.786 8.779 4.643 3.692-1.133 5.786-5.078 4.647-8.77L43.797.997a51.786 51.786 0 0 1 12.079-.54l8.155 26.5c1.135 3.697 5.083 5.782 8.779 4.648 3.692-1.14 5.777-5.082 4.643-8.779l-5.75-18.68C85.8 9.85 97.336 21.587 102.13 37.17c.75 2.434 4.224 12.498 4.375 14.081l-13.76 4.236-13.71 4.22-44.96 13.836-13.717 4.223-6.138 1.887-7.583 2.334-3.89-12.626-.446-1.468z" fill="#FFF" mask="url(#d)"/>
        </g>
        <path d="M65.781 278.676a41.344 41.344 0 0 1 21.433-15.355 41.766 41.766 0 0 1 3.193-.843l-2.274-61.86c-14.764 1.756-29.353-2.971-40.269-12.325a52.28 52.28 0 0 1-9.386-10.57c-1.187-1.774-1.175-1.74-2.36-3.902a51.77 51.77 0 0 1-4.105-9.695L27.95 150.92l-8.878-28.861 4.135-1.272 9.582-2.952 4.28-1.314 9.442-2.906 44.956-13.833 13.713-4.223 13.721-4.224 12.946 42.068a52.026 52.026 0 0 1 2.066 10.32 51.913 51.913 0 0 1-1.586 18.573c-4.136 15.25-15.092 28.369-30.404 34.714l2.386 64.75M38.247 86.769l44.956-13.837 13.713-4.22 11.008-3.387 2.714-.835 4.13 13.425-3.943 1.21-9.773 3.013-13.718 4.216-44.956 13.838-10.7 3.292-3.021.93-11.056 3.4-2.662.824-4.131-13.421 4.136-1.275 9.585-2.95 4.276-1.318z" fill="#FFF"/>
        <path d="M43.874 167.316c1.55 7.772 6.074 14.598 12.458 19.463 6.27 4.772 14.35 7.648 23.172 7.648 8.824 0 16.904-2.876 23.173-7.648 6.385-4.865 10.91-11.691 12.458-19.463.305-1.535.458-3.162.493-4.853-21.232 23.218-27.537-9.191-53.134-15.516-17.207-4.256-21.145 7.68-18.62 20.369" fill="#EE4145"/>
    </g>
</svg>
