<svg width="135" height="279" viewBox="0 0 135 279" xmlns="http://www.w3.org/2000/svg" xmlns:xlink="http://www.w3.org/1999/xlink">
    <defs>
        <path id="a" d="M0 .324h106.505v81.663H0z"/>
    </defs>
    <g fill="none" fill-rule="evenodd">
        <g transform="translate(0 -.324)">
            <mask id="b" fill="#fff">
                <use xlink:href="#a"/>
            </mask>
            <path d="M2.3 67.894C-2.517 52.239.476 35.964 9.023 23.289l5.789 18.816c1.135 3.693 5.087 5.783 8.775 4.648 3.692-1.14 5.782-5.087 4.647-8.78l-8.175-26.566a51.541 51.541 0 0 1 10.305-6.303l9.054 29.425c1.139 3.691 5.087 5.786 8.779 4.643 3.692-1.133 5.786-5.078 4.647-8.77L43.797.997a51.786 51.786 0 0 1 12.079-.54l8.155 26.5c1.135 3.697 5.083 5.782 8.779 4.648 3.692-1.14 5.777-5.082 4.643-8.779l-5.75-18.68C85.8 9.85 97.336 21.587 102.13 37.17c.75 2.434 4.224 12.498 4.375 14.081l-13.76 4.236-13.71 4.22-44.96 13.836-13.717 4.223-6.138 1.887-7.583 2.334-3.89-12.626-.446-1.468z" fill="#FFF" mask="url(#b)"/>
        </g>
        <path d="M65.781 278.676a41.344 41.344 0 0 1 21.433-15.355 41.766 41.766 0 0 1 3.193-.843l-2.274-61.86c-14.764 1.756-29.353-2.971-40.269-12.325a52.28 52.28 0 0 1-9.386-10.57c-1.187-1.774-1.175-1.74-2.36-3.902a51.77 51.77 0 0 1-4.105-9.695L27.95 150.92l-8.878-28.861 4.135-1.272 9.582-2.952 4.28-1.314 9.442-2.906 44.956-13.833 13.713-4.223 13.721-4.224 12.946 42.068a52.026 52.026 0 0 1 2.066 10.32 51.913 51.913 0 0 1-1.586 18.573c-4.136 15.25-15.092 28.369-30.404 34.714l2.386 64.75M38.247 86.769l44.956-13.837 13.713-4.22 11.008-3.387 2.714-.835 4.13 13.425-3.943 1.21-9.773 3.013-13.718 4.216-44.956 13.838-10.7 3.292-3.021.93-11.056 3.4-2.662.824-4.131-13.421 4.136-1.275 9.585-2.95 4.276-1.318z" fill="#FFF"/>
        <path d="M43.874 167.316c1.55 7.772 6.074 14.598 12.458 19.463 6.27 4.772 14.35 7.648 23.172 7.648 8.824 0 16.904-2.876 23.173-7.648 6.385-4.865 10.91-11.691 12.458-19.463.305-1.535.458-3.162.493-4.853-21.232 23.218-27.537-9.191-53.134-15.516-17.207-4.256-21.145 7.68-18.62 20.369" fill="#EE4145"/>
    </g>
</svg>
