<svg width="8" height="13" viewBox="0 0 8 13" xmlns="http://www.w3.org/2000/svg">
    <path d="M.375 8.066h3.024v4.78h.75v-4.78h3.024a.375.375 0 0 0 .374-.375V6.643c0-.763-.576-1.393-1.316-1.482l-.329-2.778h.332a.375.375 0 0 0 .375-.375v-.79A1.22 1.22 0 0 0 5.389 0H2.158A1.22 1.22 0 0 0 .94 1.218v.79c0 .207.168.375.374.375h.332l-.33 2.778A1.495 1.495 0 0 0 0 6.643v1.048c0 .207.168.375.375.375zm1.313-6.848c0-.258.21-.469.47-.469H5.39c.259 0 .47.21.47.47v.414h-.304a.38.38 0 0 0-.076-.008H2.067a.367.367 0 0 0-.076.008h-.303v-.415zm3.46 1.165.328 2.767H2.07L2.4 2.383h2.749zM.749 6.643c0-.41.334-.744.744-.744h4.561c.41 0 .744.334.744.744v.673H.75v-.673z" fill="#FFF" fill-rule="nonzero"/>
</svg>
