<svg height="180" viewBox="0 0 196 180" width="196" xmlns="http://www.w3.org/2000/svg"><g style="stroke:#fff;stroke-width:10;fill:none;fill-rule:evenodd;stroke-linecap:round;stroke-linejoin:round"><path d="m47 71v28h28m74 46v-28h-28"/><path d="m137 94.427c-4.76-13.321-16.09-23.293-30.007-26.412-13.918-3.118-28.479 1.053-38.567 11.047l-21.426 19.938m102 18-21.426 19.938c-10.088 9.994-24.649 14.165-38.567 11.047-13.917-3.119-25.247-13.09-30.007-26.412"/><path d="m165.636 30.5h-25.363l-8.455-25.5h-67.636l-8.455 25.5h-25.363c-14.008 0-25.364 11.417-25.364 25.5v93.5c0 14.083 11.356 25.5 25.364 25.5h135.272c14.008 0 25.364-11.417 25.364-25.5v-93.5c0-14.083-11.356-25.5-25.364-25.5zm-75.495 4.154h17.028"/></g></svg>